<svg width="20" height="20" viewBox="0 0 20 20" fill="none" xmlns="http://www.w3.org/2000/svg">
<path d="M12.2817 3.57995C12.4697 3.05097 13.055 2.76879 13.5552 3.02368C14.8538 3.68547 15.9485 4.70022 16.7074 5.96031C17.642 7.5121 18.0097 9.33995 17.7477 11.1324C17.4857 12.9249 16.6103 14.5711 15.2707 15.7905C13.931 17.0099 12.21 17.727 10.4009 17.8198C8.59176 17.9125 6.80644 17.3751 5.34912 16.2991C3.8918 15.2231 2.85265 13.6751 2.40874 11.9188C1.96483 10.1625 2.14361 8.30666 2.91464 6.66743C3.54072 5.33633 4.52586 4.21495 5.75004 3.42383C6.22153 3.11912 6.8326 3.33997 7.0737 3.84695C7.31481 4.35392 7.09229 4.95365 6.63515 5.2795C5.82987 5.85353 5.17996 6.62764 4.75425 7.5327C4.18342 8.74633 4.05105 10.1203 4.37971 11.4206C4.70836 12.7209 5.47771 13.867 6.55665 14.6637C7.6356 15.4603 8.95739 15.8582 10.2968 15.7895C11.6362 15.7208 12.9104 15.1899 13.9022 14.2871C14.894 13.3843 15.5421 12.1655 15.7361 10.8384C15.9301 9.51134 15.6579 8.15806 14.9659 7.00917C14.4499 6.15239 13.7242 5.44881 12.8645 4.96014C12.3764 4.68275 12.0937 4.10892 12.2817 3.57995Z" fill="#32C441"/>
<path d="M10 3V10" stroke="#32C441" stroke-width="2" stroke-linecap="round"/>
</svg>
